{
  "accessors": [
    {
      "bufferView": 2,
      "componentType": 5126,
      "count": 26526,
      "max": [
        22.620635986328125,
        21.176395416259766,
        8.677814483642578
      ],
      "min": [
        -22.234411239624023,
        -20.13111114501953,
        -0.016463978216052055
      ],
      "type": "VEC3"
    },
    {
      "bufferView": 2,
      "byteOffset": 318312,
      "componentType": 5126,
      "count": 26526,
      "max": [
        0.9999473690986633,
        0.9998781681060791,
        0.9736072421073914
      ],
      "min": [
        -0.999997079372406,
        -0.9999434351921082,
        -0.9971715211868286
      ],
      "type": "VEC3"
    },
    {
      "bufferView": 1,
      "componentType": 5126,
      "count": 26526,
      "max": [
        1.0,
        0.9980040192604065
      ],
      "min": [
        0.0,
        0.0
      ],
      "type": "VEC2"
    },
    {
      "bufferView": 1,
      "byteOffset": 212208,
      "componentType": 5126,
      "count": 26526,
      "max": [
        1.0,
        0.9980040192604065
      ],
      "min": [
        0.0,
        0.0
      ],
      "type": "VEC2"
    },
    {
      "bufferView": 1,
      "byteOffset": 424416,
      "componentType": 5126,
      "count": 26526,
      "max": [
        1.0,
        0.9980040192604065
      ],
      "min": [
        0.0,
        0.0
      ],
      "type": "VEC2"
    },
    {
      "bufferView": 1,
      "byteOffset": 636624,
      "componentType": 5126,
      "count": 26526,
      "max": [
        1.0,
        0.9980040192604065
      ],
      "min": [
        0.0,
        0.0
      ],
      "type": "VEC2"
    },
    {
      "bufferView": 0,
      "componentType": 5125,
      "count": 130440,
      "type": "SCALAR"
    },
    {
      "bufferView": 2,
      "byteOffset": 636624,
      "componentType": 5126,
      "count": 2847,
      "max": [
        22.565038681030273,
        20.994958877563477,
        8.900949478149414
      ],
      "min": [
        -22.22780990600586,
        -20.159461975097656,
        2.235177516937256
      ],
      "type": "VEC3"
    },
    {
      "bufferView": 2,
      "byteOffset": 670788,
      "componentType": 5126,
      "count": 2847,
      "max": [
        0.999515175819397,
        0.9999507665634155,
        0.9999991655349731
      ],
      "min": [
        -0.9999211430549622,
        -0.9994919896125793,
        -0.9871320128440857
      ],
      "type": "VEC3"
    },
    {
      "bufferView": 1,
      "byteOffset": 848832,
      "componentType": 5126,
      "count": 2847,
      "max": [
        1.0,
        1.0
      ],
      "min": [
        0.0,
        0.0
      ],
      "type": "VEC2"
    },
    {
      "bufferView": 1,
      "byteOffset": 871608,
      "componentType": 5126,
      "count": 2847,
      "max": [
        1.0,
        1.0
      ],
      "min": [
        0.0,
        0.0
      ],
      "type": "VEC2"
    },
    {
      "bufferView": 1,
      "byteOffset": 894384,
      "componentType": 5126,
      "count": 2847,
      "max": [
        1.0,
        1.0
      ],
      "min": [
        0.0,
        0.0
      ],
      "type": "VEC2"
    },
    {
      "bufferView": 1,
      "byteOffset": 917160,
      "componentType": 5126,
      "count": 2847,
      "max": [
        1.0,
        1.0
      ],
      "min": [
        0.0,
        0.0
      ],
      "type": "VEC2"
    },
    {
      "bufferView": 1,
      "byteOffset": 939936,
      "componentType": 5126,
      "count": 2847,
      "max": [
        1.0,
        1.0
      ],
      "min": [
        0.0,
        0.0
      ],
      "type": "VEC2"
    },
    {
      "bufferView": 0,
      "byteOffset": 521760,
      "componentType": 5125,
      "count": 9855,
      "type": "SCALAR"
    },
    {
      "bufferView": 2,
      "byteOffset": 704952,
      "componentType": 5126,
      "count": 41592,
      "max": [
        23.32810401916504,
        21.589527130126953,
        9.063011169433594
      ],
      "min": [
        -22.844297409057617,
        -20.766277313232422,
        1.8451069593429565
      ],
      "type": "VEC3"
    },
    {
      "bufferView": 2,
      "byteOffset": 1204056,
      "componentType": 5126,
      "count": 41592,
      "max": [
        0.9999990463256836,
        0.9998456835746765,
        0.9999894499778748
      ],
      "min": [
        -0.999916136264801,
        -0.9992926716804504,
        -0.8631390929222107
      ],
      "type": "VEC3"
    },
    {
      "bufferView": 1,
      "byteOffset": 962712,
      "componentType": 5126,
      "count": 41592,
      "max": [
        0.9995005130767822,
        1.0000001192092896
      ],
      "min": [
        0.0004994869232177734,
        0.0
      ],
      "type": "VEC2"
    },
    {
      "bufferView": 1,
      "byteOffset": 1295448,
      "componentType": 5126,
      "count": 41592,
      "max": [
        0.9995005130767822,
        1.0000001192092896
      ],
      "min": [
        0.0004994869232177734,
        0.0
      ],
      "type": "VEC2"
    },
    {
      "bufferView": 1,
      "byteOffset": 1628184,
      "componentType": 5126,
      "count": 41592,
      "max": [
        0.9995005130767822,
        1.0000001192092896
      ],
      "min": [
        0.0004994869232177734,
        0.0
      ],
      "type": "VEC2"
    },
    {
      "bufferView": 1,
      "byteOffset": 1960920,
      "componentType": 5126,
      "count": 41592,
      "max": [
        0.9995005130767822,
        1.0000001192092896
      ],
      "min": [
        0.0004994869232177734,
        0.0
      ],
      "type": "VEC2"
    },
    {
      "bufferView": 0,
      "byteOffset": 561180,
      "componentType": 5125,
      "count": 105690,
      "type": "SCALAR"
    },
    {
      "bufferView": 2,
      "byteOffset": 1703160,
      "componentType": 5126,
      "count": 23948,
      "max": [
        22.479137420654297,
        23.43336296081543,
        3.7238316535949707
      ],
      "min": [
        -23.685592651367188,
        -20.964521408081055,
        -2.4248218536376953
      ],
      "type": "VEC3"
    },
    {
      "bufferView": 2,
      "byteOffset": 1990536,
      "componentType": 5126,
      "count": 23948,
      "max": [
        0.9991505742073059,
        0.9999510049819946,
        0.9999980926513672
      ],
      "min": [
        -0.9995431303977966,
        -0.9994741678237915,
        -0.5119870901107788
      ],
      "type": "VEC3"
    },
    {
      "bufferView": 1,
      "byteOffset": 2293656,
      "componentType": 5126,
      "count": 23948,
      "max": [
        0.9995005130767822,
        1.0
      ],
      "min": [
        0.0004995167255401611,
        0.0
      ],
      "type": "VEC2"
    },
    {
      "bufferView": 1,
      "byteOffset": 2485240,
      "componentType": 5126,
      "count": 23948,
      "max": [
        0.9995005130767822,
        1.0
      ],
      "min": [
        0.0004995167255401611,
        0.0
      ],
      "type": "VEC2"
    },
    {
      "bufferView": 1,
      "byteOffset": 2676824,
      "componentType": 5126,
      "count": 23948,
      "max": [
        0.9995005130767822,
        1.0
      ],
      "min": [
        0.0004995167255401611,
        0.0
      ],
      "type": "VEC2"
    },
    {
      "bufferView": 1,
      "byteOffset": 2868408,
      "componentType": 5126,
      "count": 23948,
      "max": [
        0.9995005130767822,
        1.0
      ],
      "min": [
        0.0004995167255401611,
        0.0
      ],
      "type": "VEC2"
    },
    {
      "bufferView": 1,
      "byteOffset": 3059992,
      "componentType": 5126,
      "count": 23948,
      "max": [
        0.9995005130767822,
        1.0
      ],
      "min": [
        0.0004995167255401611,
        0.0
      ],
      "type": "VEC2"
    },
    {
      "bufferView": 1,
      "byteOffset": 3251576,
      "componentType": 5126,
      "count": 23948,
      "max": [
        0.9995005130767822,
        1.0
      ],
      "min": [
        0.0004995167255401611,
        0.0
      ],
      "type": "VEC2"
    },
    {
      "bufferView": 0,
      "byteOffset": 983940,
      "componentType": 5125,
      "count": 92574,
      "type": "SCALAR"
    }
  ],
  "asset": {
    "extras": {
      "author": "BojanBabic (https://sketchfab.com/bokadigimon)",
      "license": "CC-BY-4.0 (http://creativecommons.org/licenses/by/4.0/)",
      "source": "https://sketchfab.com/3d-models/bellis-perennis-f85a2ff808644197b63567763d5c5721",
      "title": "Bellis Perennis"
    },
    "generator": "Sketchfab-12.87.0",
    "version": "2.0"
  },
  "bufferViews": [
    {
      "buffer": 0,
      "byteLength": 1354236,
      "name": "floatBufferViews",
      "target": 34963
    },
    {
      "buffer": 0,
      "byteLength": 3443160,
      "byteOffset": 1354236,
      "byteStride": 8,
      "name": "floatBufferViews",
      "target": 34962
    },
    {
      "buffer": 0,
      "byteLength": 2277912,
      "byteOffset": 4797396,
      "byteStride": 12,
      "name": "floatBufferViews",
      "target": 34962
    }
  ],
  "buffers": [
    {
      "byteLength": 7075308,
      "uri": "scene.bin"
    }
  ],
  "images": [
    {
      "uri": "textures/Material_37_baseColor.png"
    },
    {
      "uri": "textures/Material_36_baseColor.png"
    },
    {
      "uri": "textures/Material_38_baseColor.png"
    }
  ],
  "materials": [
    {
      "doubleSided": true,
      "name": "Material_10",
      "pbrMetallicRoughness": {
        "baseColorFactor": [
          0.25098,
          0.278431,
          0.054902,
          1.0
        ],
        "metallicFactor": 0.0,
        "roughnessFactor": 0.8929713596497552
      }
    },
    {
      "doubleSided": true,
      "name": "Material_37",
      "pbrMetallicRoughness": {
        "baseColorTexture": {
          "index": 0
        },
        "metallicFactor": 0.0,
        "roughnessFactor": 0.8929713596497552
      }
    },
    {
      "doubleSided": true,
      "name": "Material_36",
      "pbrMetallicRoughness": {
        "baseColorTexture": {
          "index": 1
        },
        "metallicFactor": 0.0,
        "roughnessFactor": 0.8929713596497552
      }
    },
    {
      "alphaMode": "BLEND",
      "doubleSided": true,
      "name": "Material_38",
      "pbrMetallicRoughness": {
        "baseColorTexture": {
          "index": 2
        },
        "metallicFactor": 0.0,
        "roughnessFactor": 0.8200000000000001
      }
    }
  ],
  "meshes": [
    {
      "name": "VP Bellis Perennis 003_Material #10_0",
      "primitives": [
        {
          "attributes": {
            "NORMAL": 1,
            "POSITION": 0,
            "TEXCOORD_0": 2,
            "TEXCOORD_1": 3,
            "TEXCOORD_2": 4,
            "TEXCOORD_3": 5
          },
          "indices": 6,
          "material": 0,
          "mode": 4
        }
      ]
    },
    {
      "name": "VP Bellis Perennis 003_Material #37_0",
      "primitives": [
        {
          "attributes": {
            "NORMAL": 8,
            "POSITION": 7,
            "TEXCOORD_0": 9,
            "TEXCOORD_1": 10,
            "TEXCOORD_2": 11,
            "TEXCOORD_3": 12,
            "TEXCOORD_4": 13
          },
          "indices": 14,
          "material": 1,
          "mode": 4
        }
      ]
    },
    {
      "name": "VP Bellis Perennis 003_Material #36_0",
      "primitives": [
        {
          "attributes": {
            "NORMAL": 16,
            "POSITION": 15,
            "TEXCOORD_0": 17,
            "TEXCOORD_1": 18,
            "TEXCOORD_2": 19,
            "TEXCOORD_3": 20
          },
          "indices": 21,
          "material": 2,
          "mode": 4
        }
      ]
    },
    {
      "name": "VP Bellis Perennis 003_Material #38_0",
      "primitives": [
        {
          "attributes": {
            "NORMAL": 23,
            "POSITION": 22,
            "TEXCOORD_0": 24,
            "TEXCOORD_1": 25,
            "TEXCOORD_2": 26,
            "TEXCOORD_3": 27,
            "TEXCOORD_4": 28,
            "TEXCOORD_5": 29
          },
          "indices": 30,
          "material": 3,
          "mode": 4
        }
      ]
    }
  ],
  "nodes": [
    {
      "children": [
        1
      ],
      "matrix": [
        1.0,
        0.0,
        0.0,
        0.0,
        0.0,
        2.220446049250313e-16,
        -1.0,
        0.0,
        0.0,
        1.0,
        2.220446049250313e-16,
        0.0,
        0.0,
        0.0,
        0.0,
        1.0
      ],
      "name": "Sketchfab_model"
    },
    {
      "children": [
        2
      ],
      "matrix": [
        0.009999999776482582,
        0.0,
        0.0,
        0.0,
        0.0,
        0.0,
        0.009999999776482582,
        0.0,
        0.0,
        -0.009999999776482582,
        0.0,
        0.0,
        0.0,
        0.0,
        0.0,
        1.0
      ],
      "name": "51d4107587294c8b9e10fa0fe917f8bb.fbx"
    },
    {
      "children": [
        3
      ],
      "name": "RootNode"
    },
    {
      "children": [
        4,
        5,
        6,
        7
      ],
      "matrix": [
        1.0,
        0.0,
        0.0,
        0.0,
        0.0,
        2.220446049250313e-16,
        -1.0,
        0.0,
        0.0,
        1.0,
        2.220446049250313e-16,
        0.0,
        0.0,
        0.0,
        0.0,
        1.0
      ],
      "name": "VP Bellis Perennis 003"
    },
    {
      "mesh": 0,
      "name": "VP Bellis Perennis 003_Material #10_0"
    },
    {
      "mesh": 1,
      "name": "VP Bellis Perennis 003_Material #37_0"
    },
    {
      "mesh": 2,
      "name": "VP Bellis Perennis 003_Material #36_0"
    },
    {
      "mesh": 3,
      "name": "VP Bellis Perennis 003_Material #38_0"
    }
  ],
  "samplers": [
    {
      "magFilter": 9729,
      "minFilter": 9987,
      "wrapS": 10497,
      "wrapT": 10497
    }
  ],
  "scene": 0,
  "scenes": [
    {
      "name": "Sketchfab_Scene",
      "nodes": [
        0
      ]
    }
  ],
  "textures": [
    {
      "sampler": 0,
      "source": 0
    },
    {
      "sampler": 0,
      "source": 1
    },
    {
      "sampler": 0,
      "source": 2
    }
  ]
}
